<mxfile host="app.diagrams.net" agent="Mozilla/5.0 (Macintosh; Intel Mac OS X 10_15_7) AppleWebKit/605.1.15 (KHTML, like Gecko) Version/17.5 Safari/605.1.15" version="26.2.12">
  <diagram name="第 1 页" id="EilKcM3IA61pI4sTufB8">
    <mxGraphModel dx="220" dy="146" grid="1" gridSize="10" guides="1" tooltips="1" connect="1" arrows="1" fold="1" page="1" pageScale="1" pageWidth="827" pageHeight="1169" math="0" shadow="0">
      <root>
        <mxCell id="0" />
        <mxCell id="1" parent="0" />
        <mxCell id="2L73jhUo69EuxTZLVos9-1" value="" style="ellipse;whiteSpace=wrap;html=1;aspect=fixed;fillColor=#fff2cc;strokeColor=#d6b656;fontStyle=1" vertex="1" parent="1">
          <mxGeometry x="610" y="338" width="20" height="20" as="geometry" />
        </mxCell>
        <mxCell id="2L73jhUo69EuxTZLVos9-2" value="" style="ellipse;whiteSpace=wrap;html=1;aspect=fixed;fillColor=#fff2cc;strokeColor=#d6b656;fontStyle=1" vertex="1" parent="1">
          <mxGeometry x="660" y="338" width="20" height="20" as="geometry" />
        </mxCell>
        <mxCell id="2L73jhUo69EuxTZLVos9-3" value="" style="ellipse;whiteSpace=wrap;html=1;aspect=fixed;fillColor=#dae8fc;strokeColor=#6c8ebf;fontStyle=1" vertex="1" parent="1">
          <mxGeometry x="630" y="300" width="20" height="20" as="geometry" />
        </mxCell>
        <mxCell id="2L73jhUo69EuxTZLVos9-4" style="rounded=0;orthogonalLoop=1;jettySize=auto;html=1;endArrow=none;startFill=0;fontStyle=1" edge="1" parent="1" source="2L73jhUo69EuxTZLVos9-1" target="2L73jhUo69EuxTZLVos9-3">
          <mxGeometry relative="1" as="geometry">
            <mxPoint x="637" y="343" as="sourcePoint" />
            <mxPoint x="652" y="345" as="targetPoint" />
          </mxGeometry>
        </mxCell>
        <mxCell id="2L73jhUo69EuxTZLVos9-5" style="rounded=0;orthogonalLoop=1;jettySize=auto;html=1;endArrow=classic;startFill=0;startArrow=none;endFill=1;endSize=3;strokeColor=#6c8ebf;fillColor=#dae8fc;fontStyle=1" edge="1" parent="1" source="2L73jhUo69EuxTZLVos9-2" target="2L73jhUo69EuxTZLVos9-3">
          <mxGeometry relative="1" as="geometry">
            <mxPoint x="665" y="380" as="sourcePoint" />
            <mxPoint x="665" y="350" as="targetPoint" />
          </mxGeometry>
        </mxCell>
        <mxCell id="2L73jhUo69EuxTZLVos9-6" value="" style="ellipse;shape=cloud;whiteSpace=wrap;html=1;fontStyle=1" vertex="1" parent="1">
          <mxGeometry x="667" y="280" width="50" height="30" as="geometry" />
        </mxCell>
        <mxCell id="2L73jhUo69EuxTZLVos9-7" value="" style="endArrow=classic;html=1;rounded=0;entryX=0.55;entryY=0.95;entryDx=0;entryDy=0;entryPerimeter=0;endSize=3;fillColor=#f8cecc;strokeColor=#b85450;fontStyle=1" edge="1" parent="1" source="2L73jhUo69EuxTZLVos9-2" target="2L73jhUo69EuxTZLVos9-6">
          <mxGeometry width="50" height="50" relative="1" as="geometry">
            <mxPoint x="690.002135623731" y="349.35786437626894" as="sourcePoint" />
            <mxPoint x="774.3600000000001" y="160" as="targetPoint" />
          </mxGeometry>
        </mxCell>
        <mxCell id="2L73jhUo69EuxTZLVos9-8" style="rounded=0;orthogonalLoop=1;jettySize=auto;html=1;endSize=3;strokeColor=#000000;fontStyle=1" edge="1" parent="1" target="2L73jhUo69EuxTZLVos9-2">
          <mxGeometry relative="1" as="geometry">
            <mxPoint x="693" y="390" as="sourcePoint" />
          </mxGeometry>
        </mxCell>
        <mxCell id="2L73jhUo69EuxTZLVos9-9" value="" style="sketch=0;outlineConnect=0;fontColor=#232F3E;gradientColor=none;fillColor=#ED7100;strokeColor=none;dashed=0;verticalLabelPosition=bottom;verticalAlign=top;align=center;html=1;fontSize=12;fontStyle=1;aspect=fixed;pointerEvents=1;shape=mxgraph.aws4.ecs_task;" vertex="1" parent="1">
          <mxGeometry x="693" y="367.03" width="10" height="12.97" as="geometry" />
        </mxCell>
        <mxCell id="2L73jhUo69EuxTZLVos9-10" value="&lt;font style=&quot;font-size: 8px;&quot;&gt;&lt;span&gt;任务请求&lt;/span&gt;&lt;/font&gt;" style="text;html=1;align=center;verticalAlign=middle;resizable=0;points=[];autosize=1;strokeColor=none;fillColor=none;fontStyle=1" vertex="1" parent="1">
          <mxGeometry x="692" y="358" width="60" height="30" as="geometry" />
        </mxCell>
        <mxCell id="2L73jhUo69EuxTZLVos9-11" value="" style="endArrow=classic;html=1;rounded=0;entryX=1;entryY=1;entryDx=0;entryDy=0;strokeColor=#d6b656;endSize=3;edgeStyle=orthogonalEdgeStyle;curved=1;exitX=0.947;exitY=0.231;exitDx=0;exitDy=0;exitPerimeter=0;fillColor=#fff2cc;fontStyle=1" edge="1" parent="1" source="2L73jhUo69EuxTZLVos9-2" target="2L73jhUo69EuxTZLVos9-2">
          <mxGeometry width="50" height="50" relative="1" as="geometry">
            <mxPoint x="690" y="350" as="sourcePoint" />
            <mxPoint x="705" y="299" as="targetPoint" />
            <Array as="points">
              <mxPoint x="730" y="340" />
            </Array>
          </mxGeometry>
        </mxCell>
        <mxCell id="2L73jhUo69EuxTZLVos9-12" value="&lt;span style=&quot;font-family: &amp;quot;Microsoft Yahei&amp;quot;, Helvetica, Arial, sans-serif; text-align: start; text-wrap-mode: wrap; color: light-dark(rgb(210, 157, 0), rgb(43, 43, 0));&quot;&gt;&lt;font style=&quot;font-size: 6px;&quot;&gt;①&lt;/font&gt;&lt;/span&gt;" style="text;html=1;align=center;verticalAlign=middle;resizable=0;points=[];autosize=1;strokeColor=none;fillColor=none;labelBackgroundColor=none;fontStyle=1" vertex="1" parent="1">
          <mxGeometry x="688.5" y="332.9999999999999" width="30" height="30" as="geometry" />
        </mxCell>
        <mxCell id="2L73jhUo69EuxTZLVos9-13" value="&lt;span style=&quot;font-family: &amp;quot;Microsoft Yahei&amp;quot;, Helvetica, Arial, sans-serif; text-align: start; text-wrap-mode: wrap; background-color: rgb(255, 255, 255); color: rgb(0, 102, 204);&quot;&gt;&lt;font style=&quot;font-size: 6px;&quot;&gt;②&lt;/font&gt;&lt;/span&gt;" style="text;html=1;align=center;verticalAlign=middle;resizable=0;points=[];autosize=1;strokeColor=none;fillColor=none;fontStyle=1" vertex="1" parent="1">
          <mxGeometry x="644.25" y="307.9999999999999" width="30" height="30" as="geometry" />
        </mxCell>
        <mxCell id="2L73jhUo69EuxTZLVos9-14" value="&lt;span style=&quot;font-family: &amp;quot;Microsoft Yahei&amp;quot;, Helvetica, Arial, sans-serif; font-style: normal; font-variant-ligatures: normal; font-variant-caps: normal; letter-spacing: normal; orphans: 2; text-align: start; text-indent: 0px; text-transform: none; widows: 2; word-spacing: 0px; -webkit-text-stroke-width: 0px; white-space: normal; background-color: rgb(255, 255, 255); text-decoration-thickness: initial; text-decoration-style: initial; text-decoration-color: initial; float: none; color: rgb(204, 0, 0); display: inline !important;&quot;&gt;&lt;font style=&quot;font-size: 6px;&quot;&gt;③&lt;/font&gt;&lt;/span&gt;" style="text;whiteSpace=wrap;html=1;fontStyle=1" vertex="1" parent="1">
          <mxGeometry x="688" y="311" width="22" height="20" as="geometry" />
        </mxCell>
        <mxCell id="2L73jhUo69EuxTZLVos9-15" value="..." style="text;html=1;align=center;verticalAlign=middle;whiteSpace=wrap;rounded=0;" vertex="1" parent="1">
          <mxGeometry x="608" y="337.03" width="60" height="30" as="geometry" />
        </mxCell>
        <mxCell id="2L73jhUo69EuxTZLVos9-16" value="&lt;span style=&quot;font-size: 8px;&quot;&gt;云端&lt;/span&gt;" style="text;html=1;align=center;verticalAlign=middle;resizable=0;points=[];autosize=1;strokeColor=none;fillColor=none;fontStyle=1" vertex="1" parent="1">
          <mxGeometry x="672" y="279" width="40" height="30" as="geometry" />
        </mxCell>
        <mxCell id="2L73jhUo69EuxTZLVos9-18" style="rounded=0;orthogonalLoop=1;jettySize=auto;html=1;endSize=1;strokeColor=#d6b656;fontStyle=1;fillColor=#fff2cc;" edge="1" parent="1">
          <mxGeometry relative="1" as="geometry">
            <mxPoint x="624" y="374.03" as="sourcePoint" />
            <mxPoint x="604" y="374.03" as="targetPoint" />
          </mxGeometry>
        </mxCell>
        <mxCell id="2L73jhUo69EuxTZLVos9-19" style="rounded=0;orthogonalLoop=1;jettySize=auto;html=1;endSize=1;strokeColor=#b85450;fontStyle=1;fillColor=#f8cecc;targetPerimeterSpacing=-1;" edge="1" parent="1">
          <mxGeometry relative="1" as="geometry">
            <mxPoint x="624" y="381.03" as="sourcePoint" />
            <mxPoint x="604" y="381.03" as="targetPoint" />
          </mxGeometry>
        </mxCell>
        <mxCell id="2L73jhUo69EuxTZLVos9-20" style="rounded=0;orthogonalLoop=1;jettySize=auto;html=1;endSize=1;strokeColor=#6c8ebf;fontStyle=1;fillColor=#dae8fc;" edge="1" parent="1">
          <mxGeometry relative="1" as="geometry">
            <mxPoint x="624" y="388.03" as="sourcePoint" />
            <mxPoint x="604" y="388.03" as="targetPoint" />
          </mxGeometry>
        </mxCell>
        <mxCell id="2L73jhUo69EuxTZLVos9-21" value="&lt;font style=&quot;font-size: 6px;&quot;&gt;调度决策路径&lt;/font&gt;" style="text;html=1;align=center;verticalAlign=middle;resizable=0;points=[];autosize=1;strokeColor=none;fillColor=none;fontStyle=1" vertex="1" parent="1">
          <mxGeometry x="617" y="364.03" width="60" height="30" as="geometry" />
        </mxCell>
      </root>
    </mxGraphModel>
  </diagram>
</mxfile>
